# xmcd
#
# Track frame offsets: 
#        150
#        24022
#        71090
#        88915
#        110788
#        132681
#        158372
#        176459
#        203039
#        226033
#        255587
#
# Disc length: 3721 seconds
#
# Revision: 0
# Processed by: cddbd v1.5.2PL0 Copyright (c) Steve Scherf et al.
# Submitted via: ExactAudioCopy v0.95b4
#
DISCID=8a0e870b
DTITLE=Shades of Blue - Feels Like The First Time Disc 2
DYEAR=2007
DGENRE=Blues
TTITLE0=I'm Ready
TTITLE1=I'll Play The Blues For You
TTITLE2=Baby I Wants To Be Loved
TTITLE3=Killing Floor
TTITLE4=Yo Taxi
TTITLE5=Never Make Your Nove Too Soon
TTITLE6=She's Into Something
TTITLE7=I'm Gonna Cut My Hair
TTITLE8=Change In My Pocket
TTITLE9=I'm Your Hoochie Coochie Man
TTITLE10=Regurgitation Blues
EXTD=
EXTT0=
EXTT1=
EXTT2=
EXTT3=
EXTT4=
EXTT5=
EXTT6=
EXTT7=
EXTT8=
EXTT9=
EXTT10=
PLAYORDER=
